<?xml version="1.0" encoding="UTF-8"?>
<svg xmlns="http://www.w3.org/2000/svg" xmlns:xlink="http://www.w3.org/1999/xlink" width="598pt" height="124pt" viewBox="0 0 598 124" version="1.1">
<g id="surface1">
<path style=" stroke:none;fill-rule:nonzero;fill:rgb(0%,0%,0%);fill-opacity:1;" d="M 178.261719 101.847656 C 171.617188 101.847656 168.230469 96.140625 168.230469 89.300781 C 168.230469 82.464844 171.605469 76.742188 178.261719 76.742188 C 181.402344 76.667969 184.390625 78.101562 186.300781 80.601562 L 189.621094 77.742188 C 186.890625 74.230469 182.648438 72.238281 178.207031 72.375 C 168.5625 72.375 163.292969 80.378906 163.292969 89.214844 C 163.292969 98.046875 168.441406 106.171875 178.292969 106.171875 C 182.742188 106.300781 186.976562 104.277344 189.675781 100.742188 L 186.355469 97.671875 C 184.511719 100.316406 181.484375 101.882812 178.261719 101.847656 Z M 210.992188 72.375 C 207.722656 72.367188 204.464844 72.710938 201.269531 73.40625 L 201.269531 104.917969 C 204.433594 105.734375 207.6875 106.15625 210.957031 106.171875 C 220.8125 106.171875 226.304688 98.082031 226.304688 89.035156 C 226.304688 79.992188 220.679688 72.375 210.992188 72.375 Z M 210.867188 101.671875 C 209.132812 101.679688 207.410156 101.40625 205.765625 100.851562 L 205.765625 77.308594 C 207.441406 76.933594 209.152344 76.742188 210.867188 76.742188 C 217.613281 76.742188 221.421875 82.285156 221.421875 89.035156 C 221.421875 96.050781 217.867188 101.671875 210.867188 101.671875 Z M 239.359375 100.207031 C 237.78125 100.160156 236.464844 101.398438 236.414062 102.976562 C 236.367188 104.554688 237.605469 105.875 239.183594 105.925781 C 240.757812 105.972656 242.074219 104.734375 242.125 103.15625 C 242.125 103.109375 242.125 103.058594 242.125 103.011719 C 242.132812 101.472656 240.894531 100.222656 239.359375 100.207031 Z M 254.238281 105.917969 L 258.734375 105.917969 L 258.734375 91.164062 L 273.738281 91.164062 L 274.082031 86.960938 L 258.734375 86.960938 L 258.734375 76.789062 L 274.988281 76.789062 L 275.332031 72.585938 L 254.238281 72.585938 Z M 300.199219 72.375 C 290.300781 72.375 285.152344 80.421875 285.152344 89.214844 C 285.152344 98.003906 290.300781 106.171875 300.199219 106.171875 C 309.886719 106.171875 315.15625 98.035156 315.15625 89.214844 C 315.15625 80.390625 309.886719 72.375 300.199219 72.375 Z M 300.199219 101.804688 C 293.554688 101.804688 290.125 96.097656 290.125 89.257812 C 290.125 82.417969 293.445312 76.699219 300.199219 76.699219 C 306.953125 76.699219 310.273438 82.375 310.273438 89.257812 C 310.273438 96.140625 306.855469 101.847656 300.15625 101.847656 Z M 345.507812 94.832031 C 345.507812 98.347656 342.617188 101.714844 337.902344 101.714844 C 332.585938 101.714844 330.148438 98.390625 330.148438 94.832031 L 330.148438 72.585938 L 325.65625 72.929688 L 325.65625 95.199219 C 325.65625 102.679688 331.921875 106.136719 337.933594 106.136719 C 343.601562 106.136719 350.046875 102.515625 350.046875 95.199219 L 350.046875 72.585938 L 345.539062 72.929688 Z M 383.652344 100.417969 C 377.980469 93.148438 370.9375 74.757812 366.355469 72.585938 L 361.925781 72.585938 L 361.925781 105.917969 L 366.421875 105.917969 L 366.421875 78.949219 C 371.738281 87.171875 378.046875 103.878906 383.71875 105.917969 L 388.210938 105.917969 L 388.210938 72.585938 L 383.71875 72.929688 Z M 410.414062 72.375 C 407.144531 72.367188 403.882812 72.710938 400.691406 73.40625 L 400.691406 104.917969 C 403.851562 105.734375 407.101562 106.152344 410.367188 106.171875 C 420.234375 106.171875 425.714844 98.082031 425.714844 89.035156 C 425.714844 79.992188 420.101562 72.375 410.414062 72.375 Z M 410.28125 101.671875 C 408.546875 101.679688 406.828125 101.402344 405.1875 100.851562 L 405.1875 77.308594 C 406.859375 76.933594 408.566406 76.742188 410.28125 76.742188 C 417.035156 76.742188 420.832031 82.285156 420.832031 89.035156 C 420.832031 96.050781 417.289062 101.671875 410.28125 101.671875 Z M 445.832031 72.585938 C 440.640625 82.71875 435.359375 94.753906 433.808594 105.917969 L 438.304688 105.917969 C 438.765625 102.859375 439.433594 99.839844 440.296875 96.871094 L 455.984375 96.871094 C 456.851562 99.839844 457.515625 102.859375 457.980469 105.917969 L 462.472656 105.917969 C 460.914062 94.832031 455.640625 82.71875 450.449219 72.585938 Z M 441.636719 92.671875 C 443.492188 87.390625 445.671875 82.230469 448.15625 77.21875 C 450.621094 82.238281 452.785156 87.398438 454.644531 92.671875 Z M 468.960938 76.398438 L 478.128906 76.398438 L 478.128906 105.917969 L 482.625 105.917969 L 482.625 76.398438 L 491.316406 76.398438 L 491.660156 72.585938 L 469.304688 72.585938 Z M 503.550781 105.917969 L 508.046875 105.917969 L 508.046875 72.585938 L 503.550781 72.941406 Z M 534.851562 72.375 C 524.953125 72.375 519.804688 80.421875 519.804688 89.214844 C 519.804688 98.003906 524.953125 106.171875 534.851562 106.171875 C 544.542969 106.171875 549.8125 98.035156 549.8125 89.214844 C 549.8125 80.390625 544.542969 72.375 534.851562 72.375 Z M 534.851562 101.804688 C 528.152344 101.804688 524.777344 96.097656 524.777344 89.257812 C 524.777344 82.417969 528.097656 76.699219 534.851562 76.699219 C 541.605469 76.699219 544.929688 82.375 544.929688 89.257812 C 544.929688 96.140625 541.519531 101.847656 534.808594 101.847656 Z M 582.242188 72.929688 L 582.242188 100.417969 C 576.585938 93.148438 569.53125 74.757812 564.949219 72.585938 L 560.519531 72.585938 L 560.519531 105.917969 L 564.96875 105.917969 L 564.96875 78.949219 C 570.296875 87.171875 576.605469 103.878906 582.265625 105.917969 L 586.757812 105.917969 L 586.757812 72.585938 Z M 101.085938 113.179688 C 102.0625 113.050781 103.011719 112.878906 103.941406 112.65625 C 104.871094 112.4375 105.769531 112.183594 106.691406 111.886719 C 112.007812 110.082031 116.609375 106.78125 121.015625 102.191406 L 120.960938 102.125 C 115.074219 108.226562 108.875 112.113281 101.085938 113.179688 Z M 98.214844 113.449219 L 98.34375 113.449219 C 98.773438 113.449219 99.191406 113.394531 99.613281 113.359375 C 99.191406 113.394531 98.773438 113.429688 98.339844 113.449219 Z M 122.019531 65.058594 L 121.972656 65.132812 Z M 67.46875 82.660156 C 65.910156 84.859375 64.203125 86.945312 62.363281 88.914062 C 59.375 92.023438 56.257812 94.257812 52.65625 95.480469 C 52.042969 95.6875 51.421875 95.863281 50.789062 96.003906 C 50.140625 96.148438 49.515625 96.269531 48.855469 96.359375 C 48.636719 96.390625 48.417969 96.421875 48.191406 96.445312 L 47.832031 96.476562 C 47.546875 96.5 47.265625 96.523438 46.976562 96.539062 L 45.765625 96.539062 C 44.546875 96.53125 43.335938 96.394531 42.148438 96.125 C 41.242188 95.925781 40.351562 95.664062 39.484375 95.335938 C 38.875 95.113281 38.28125 94.859375 37.703125 94.566406 C 37.113281 94.261719 36.535156 93.96875 35.96875 93.632812 C 33.347656 92.066406 31.0625 90.007812 29.234375 87.5625 C 28.824219 87.015625 28.441406 86.445312 28.085938 85.863281 C 27.90625 85.570312 27.738281 85.273438 27.578125 84.972656 C 27.25 84.363281 26.949219 83.742188 26.683594 83.105469 C 24.746094 78.515625 24.746094 73.335938 26.683594 68.746094 C 26.949219 68.109375 27.25 67.488281 27.578125 66.878906 C 27.738281 66.574219 27.90625 66.28125 28.085938 65.988281 C 28.441406 65.40625 28.824219 64.835938 29.234375 64.289062 C 31.0625 61.847656 33.351562 59.785156 35.96875 58.21875 C 36.53125 57.882812 37.109375 57.570312 37.703125 57.285156 C 38.285156 57.019531 38.878906 56.789062 39.484375 56.585938 C 40.371094 56.246094 41.277344 55.972656 42.203125 55.765625 C 43.390625 55.496094 44.605469 55.359375 45.824219 55.355469 L 47.054688 55.355469 C 47.335938 55.355469 47.621094 55.394531 47.902344 55.417969 L 48.3125 55.457031 L 48.714844 55.503906 C 49.421875 55.597656 50.113281 55.726562 50.789062 55.882812 C 51.125 55.960938 51.457031 56.050781 51.78125 56.144531 C 53.417969 56.625 54.984375 57.3125 56.445312 58.183594 C 57.039062 58.539062 57.617188 58.917969 58.175781 59.324219 C 59.34375 60.175781 60.449219 61.113281 61.480469 62.125 C 62.015625 62.648438 62.546875 63.199219 63.078125 63.78125 L 63.113281 63.726562 C 64.664062 65.476562 66.121094 67.3125 67.46875 69.222656 C 69.609375 65.84375 72.847656 60.761719 73.996094 59.078125 C 74.464844 58.398438 74.929688 57.714844 75.4375 57.023438 C 70.109375 50.515625 63.695312 45.105469 55.128906 42.800781 L 55.066406 42.800781 C 54.648438 42.6875 54.230469 42.585938 53.8125 42.488281 L 53.632812 42.445312 C 53.222656 42.355469 52.808594 42.273438 52.394531 42.199219 L 52.144531 42.152344 C 51.65625 42.066406 51.164062 41.992188 50.671875 41.925781 L 50.617188 41.925781 C 50.347656 41.890625 50.074219 41.859375 49.800781 41.835938 L 49.648438 41.835938 L 48.910156 41.769531 L 48.6875 41.769531 L 47.996094 41.722656 L 47.730469 41.722656 L 47.03125 41.695312 L 45.804688 41.695312 C 27.515625 41.59375 11.5 57.648438 11.5 75.953125 C 11.5 94.253906 27.535156 110.3125 45.824219 110.3125 L 47.058594 110.3125 L 47.742188 110.285156 L 48.03125 110.285156 L 48.6875 110.246094 L 48.953125 110.246094 L 49.625 110.183594 L 49.847656 110.183594 L 50.5625 110.101562 L 50.722656 110.078125 L 51.5 109.96875 L 51.582031 109.96875 C 52.050781 109.894531 52.515625 109.8125 52.984375 109.722656 L 53.238281 109.667969 C 53.613281 109.589844 53.988281 109.503906 54.363281 109.414062 L 54.589844 109.359375 C 54.988281 109.257812 55.382812 109.152344 55.777344 109.035156 L 55.871094 109.007812 C 64.03125 106.613281 70.210938 101.367188 75.378906 95.105469 C 74.824219 94.269531 74.292969 93.417969 73.789062 92.550781 Z M 67.46875 82.660156 "/>
<path style=" stroke:none;fill-rule:nonzero;fill:rgb(0%,0%,0%);fill-opacity:1;" d="M 135.152344 11.667969 L 135.152344 48.976562 C 129.269531 44.265625 121.980469 41.667969 114.445312 41.597656 L 113.21875 41.597656 L 112.519531 41.625 L 112.242188 41.644531 L 111.554688 41.691406 L 111.328125 41.691406 L 110.59375 41.753906 L 110.4375 41.753906 C 110.164062 41.78125 109.894531 41.808594 109.621094 41.847656 L 109.5625 41.847656 C 109.070312 41.910156 108.582031 41.984375 108.09375 42.070312 L 107.84375 42.117188 C 107.425781 42.195312 107.015625 42.277344 106.605469 42.367188 L 106.425781 42.410156 C 94.480469 45.113281 86.609375 53.761719 80.117188 63.226562 C 79.84375 63.628906 79.585938 64.035156 79.316406 64.4375 C 78.171875 66.191406 77.039062 67.953125 75.914062 69.71875 C 74.605469 71.769531 73.300781 73.828125 72.003906 75.890625 L 80.121094 88.558594 C 80.121094 88.558594 88.785156 104.507812 104.410156 108.851562 L 104.503906 108.878906 C 104.894531 108.996094 105.289062 109.097656 105.6875 109.199219 L 105.914062 109.257812 C 106.28125 109.351562 106.660156 109.429688 107.039062 109.507812 L 107.296875 109.5625 C 107.761719 109.652344 108.226562 109.738281 108.695312 109.8125 L 108.777344 109.8125 L 109.554688 109.917969 L 109.714844 109.941406 L 110.429688 110.027344 L 110.652344 110.027344 L 111.324219 110.085938 L 111.589844 110.085938 L 112.25 110.125 L 112.539062 110.125 L 113.21875 110.152344 L 114.453125 110.152344 C 135.992188 110.152344 148.457031 97.949219 148.769531 76.625 L 148.769531 11.667969 Z M 114.445312 96.570312 L 113.238281 96.570312 C 112.949219 96.570312 112.664062 96.53125 112.378906 96.507812 L 112.019531 96.476562 C 111.796875 96.453125 111.578125 96.425781 111.359375 96.390625 C 110.074219 96.222656 108.8125 95.921875 107.589844 95.496094 C 106.691406 95.1875 105.820312 94.816406 104.976562 94.378906 C 104.125 93.941406 103.300781 93.445312 102.515625 92.894531 C 102.117188 92.621094 101.722656 92.332031 101.328125 92.023438 C 100.117188 91.0625 98.976562 90.019531 97.910156 88.898438 L 97.875 88.945312 C 97.371094 88.417969 96.882812 87.878906 96.40625 87.324219 C 96.34375 87.257812 96.289062 87.183594 96.226562 87.113281 C 95.980469 86.832031 95.734375 86.546875 95.484375 86.242188 C 95.238281 85.9375 95.042969 85.691406 94.824219 85.414062 C 94.605469 85.140625 94.472656 84.980469 94.296875 84.753906 C 93.472656 83.683594 92.675781 82.59375 91.914062 81.484375 C 91.636719 81.089844 91.363281 80.6875 91.082031 80.277344 C 90.933594 80.054688 90.78125 79.8125 90.617188 79.597656 C 90.351562 79.195312 90.078125 78.804688 89.808594 78.394531 L 89.667969 78.179688 C 89.203125 77.464844 88.738281 76.726562 88.234375 75.96875 C 89.007812 74.757812 89.769531 73.59375 90.523438 72.476562 C 91.273438 71.363281 92.015625 70.289062 92.753906 69.269531 C 93.488281 68.253906 94.21875 67.28125 94.953125 66.359375 C 95.691406 65.441406 96.417969 64.578125 97.160156 63.765625 C 97.691406 63.1875 98.226562 62.636719 98.761719 62.113281 C 99.796875 61.097656 100.902344 60.164062 102.070312 59.308594 C 103.039062 58.625 104.058594 58.015625 105.121094 57.488281 C 105.253906 57.425781 105.382812 57.34375 105.519531 57.28125 L 105.605469 57.234375 C 106.160156 56.976562 106.726562 56.765625 107.300781 56.550781 L 107.492188 56.472656 C 107.597656 56.4375 107.710938 56.417969 107.816406 56.378906 C 108.25 56.238281 108.691406 56.113281 109.132812 56.003906 L 109.675781 55.871094 C 110.285156 55.738281 110.90625 55.621094 111.539062 55.539062 L 111.941406 55.492188 L 112.351562 55.449219 C 112.632812 55.449219 112.914062 55.402344 113.199219 55.390625 L 114.429688 55.390625 C 115.03125 55.390625 115.632812 55.425781 116.230469 55.492188 C 117.152344 55.601562 118.066406 55.777344 118.960938 56.023438 C 119.566406 56.191406 120.171875 56.386719 120.769531 56.617188 C 121.378906 56.84375 121.972656 57.101562 122.550781 57.386719 C 123.742188 57.964844 124.882812 58.644531 125.957031 59.417969 C 126.503906 59.8125 127.03125 60.226562 127.542969 60.667969 C 128.835938 61.78125 130.003906 63.035156 131.023438 64.40625 C 131.425781 64.949219 131.808594 65.519531 132.167969 66.105469 C 133.066406 67.574219 133.769531 69.152344 134.261719 70.800781 C 134.457031 71.472656 134.613281 72.152344 134.730469 72.835938 C 134.917969 73.890625 135.011719 74.957031 135.007812 76.027344 C 135.039062 90.203125 128.683594 96.570312 114.445312 96.570312 Z M 114.445312 96.570312 "/>
</g>
</svg>
